<?xml version="1.0" encoding="UTF-8"?>
<svg width="1319" height="478" version="1.1" viewBox="0 0 1319 478" xml:space="preserve" xmlns="http://www.w3.org/2000/svg">
<style type="text/css">
	.st0{opacity:0.2;}
	.st1{fill:#FFFFFF;}
	.st2{fill:#FF8C00;}
	.st3{fill:url(#SVGID_1_);}
	.st4{fill:url(#SVGID_2_);}
	.st5{fill:url(#SVGID_3_);}
</style>
<ellipse class="st0" cx="215.96" cy="403.87" rx="214" ry="75"/>
<path class="st1" d="m349.14 25.559c-28.55-19.29-49.19-26.34-69.02-23.57-21.48 3-40.23 17.42-61.77 38.16-1.47 1.42-2.97 2.88-4.49 4.38-8.82 8.7-17.6 17.37-26.36 26.02-27.99 27.66-56.93 56.26-85.9 84.15-3.32 3.19-6.64 6.38-9.97 9.57l-0.28 0.27c-27.17 26.16-32.76 54.81-18.13 92.88 1.54 4 3.29 7.83 4.99 11.53 0.69 1.49 1.37 2.99 2.04 4.49 15.44 34.67 41.17 64.3 78.65 90.59 30.56 21.44 59.29 23.08 85.4 4.89 6.27-4.37 12.81-8.26 19.73-12.39 2.46-1.47 4.92-2.93 7.37-4.42 13.46-8.18 26.92-16.35 40.38-24.52 31.02-18.82 63.1-38.28 94.57-57.58 5.67-3.48 10.8-7.5 15.76-11.39 2.24-1.76 4.36-3.42 6.52-5.03l20.49-15.24-19.8-4.8-4.85-1.6c-1.78-0.59-3.55-1.12-5.25-1.63-3.41-1.02-6.63-1.99-9.45-3.26-6.44-2.91-13.06-5.59-19.47-8.19-15.3-6.2-29.76-12.06-42.06-20.73-42.41-29.88-68.99-64.4-81.26-105.55-5.25-17.61-4.25-27.82 3.45-35.23l0.14-0.13c5.48-5.2 11.74-6.3 19.85-4.78-4.4 1.41-7.49 3.72-9.43 5.59-4.95 4.77-7.9 11.76-8.52 20.21-0.63 8.61-0.65 25.14 6.27 39.15 21.12 42.74 54.96 72.91 100.59 89.67 8.48 3.12 30.29 9.35 49.52-0.06 3.51-1.72 6.63-3.87 9.25-6.4 21.24-20.45 5.28-56.54-3.3-75.93l-0.14-0.32c-18.13-40.99-43.71-70.54-85.52-98.8zm50.27 131.79c-0.68 0.65-2.19 1.15-4.15 1.36-11.04 1.2-25.37-4.28-37.81-12.77 0.11 0.01 1.12 0.13 1.12 0.13 8.3 0.96 19.67 0.67 26.74-6.14 2.46-2.37 5.71-6.85 5.44-13.8 8.17 13.48 11.69 28.31 8.66 31.22z"/>
<g transform="translate(-221.32 -359.28)">
	<path class="st2" d="m648.21 600.93c-7.16 5.34-19.03 13.76-26.61 18.4-44.87 27.52-89.94 54.73-134.92 82.08-9.26 5.63-18.74 10.96-27.62 17.15-26.06 18.16-51.14 11.11-73.94-4.88-31.98-22.43-59.01-49.98-75.26-86.47-2.3-5.17-4.8-10.26-6.83-15.53-11.81-30.72-11.02-56.49 15.99-82.33 41.45-39.67 81.4-79.49 122.34-119.85 46.39-45.73 69.67-53.61 122.66-17.8 37.41 25.28 63.52 52.83 81.97 94.57 8.38 18.96 25.27 56.75-1.06 69.62-12.7 6.21-28.89 4.35-41.68-0.35-42.75-15.7-74.96-44.01-95.07-84.71-4.88-9.89-6.09-22.76-5.26-33.99 1.09-14.81 10.77-20.75 24.96-16.46 20.39 6.16 39.06 17.37 53.66 32.94 6.95 7.41 14.22 15.53 18.19 24.98 6.26 14.88-8.23 17-19.52 15.69-5.62-0.65-11-1.18-16.12-3.66-4.63-2.24-21.87-12.56-22.99-17.5 6.14 27.15 47.66 56.73 75.74 53.67 26.21-2.86 9.34-38.07 1.32-50.31-21.6-32.98-51.47-56.51-88.35-70.54-15.2-5.78-31.89-10.87-45.63 2.17-13.41 12.73-10.94 29.88-6.29 45.48 14.19 47.58 45.67 83.09 85.09 110.87 18.76 13.22 41.91 20.26 63.18 29.86 5 2.26 10.44 3.54 15.68 5.27zm-285.26-17.07c-26.1 20.31-26.71 24.21-8.43 47.95 7.72-6.08 15.43-12.14 23.37-18.39-5.16-10.21-9.81-19.42-14.94-29.56zm93.58-34.27c8.77-6.87 16.46-12.89 24.39-19.11-6.21-10.75-11.55-20.01-16.76-29.02-8.21 7.28-15.61 13.84-23.38 20.73 5.27 9.17 10.17 17.69 15.75 27.4zm45.64 5.17c-7.78 6.65-15.4 13.16-24.17 20.65 8.9 7.63 16.59 14.23 24.62 21.12 8.24-6.86 15.43-12.84 23.38-19.46-8.18-7.66-15.42-14.45-23.83-22.31zm-103.27 84.87c-7.64 6.25-15.22 12.46-24.14 19.76 10.19 7.43 19.03 13.89 28.1 20.51 7.52-7.47 14.24-14.13 21.34-21.17-8.33-6.3-15.93-12.03-25.3-19.1zm30.14-148.38c26.8-20.75 27.9-24.57 14.25-47.77-26.08 18.32-27.86 23.97-14.25 47.77zm-81.46 38.25c-25.11 18.93-27.01 24.21-17.37 48.24 27.14-17.09 29.65-24.06 17.37-48.24zm207.1 63.51c-8.39 6.33-16.7 12.59-25.37 19.13 24.23 18.1 28.1 17.68 49.34-4.63-7.42-4.49-14.73-8.91-23.97-14.5zm-79.38 90.78c-29.57-13.38-29.57-13.38-50.99 8.22 24.53 14.32 28.52 13.73 50.99-8.22z"/>
	<path class="st1" d="m362.95 583.86c5.12 10.14 9.78 19.35 14.94 29.56-7.94 6.25-15.64 12.31-23.37 18.39-18.28-23.74-17.66-27.64 8.43-47.95z"/>
	<path class="st1" d="m456.53 549.59c-5.58-9.71-10.48-18.23-15.75-27.4 7.77-6.89 15.17-13.45 23.38-20.73 5.21 9.02 10.55 18.27 16.76 29.02-7.94 6.22-15.62 12.24-24.39 19.11z"/>
	<path class="st1" d="m502.17 554.76c8.4 7.87 15.65 14.65 23.83 22.31-7.95 6.62-15.14 12.6-23.38 19.46-8.03-6.88-15.72-13.49-24.62-21.12 8.77-7.5 16.39-14.01 24.17-20.65z"/>
	<path class="st1" d="m398.9 639.63c9.37 7.07 16.97 12.81 25.31 19.1-7.1 7.04-13.81 13.71-21.34 21.17-9.07-6.62-17.92-13.08-28.1-20.51 8.91-7.3 16.49-13.51 24.13-19.76z"/>
	<path class="st1" d="m429.04 491.25c-13.6-23.79-11.83-29.45 14.25-47.77 13.65 23.19 12.54 27.02-14.25 47.77z"/>
	<path class="st1" d="m347.58 529.5c12.27 24.19 9.77 31.15-17.37 48.24-9.63-24.04-7.73-29.32 17.37-48.24z"/>
	<path class="st1" d="m554.68 593.01c9.24 5.59 16.55 10.01 23.98 14.5-21.24 22.3-25.11 22.72-49.34 4.63 8.66-6.54 16.97-12.8 25.36-19.13z"/>
	<path class="st1" d="m475.3 683.79c-22.48 21.94-26.46 22.53-50.99 8.22 21.43-21.6 21.43-21.6 50.99-8.22z"/>


	<polygon class="st1" points="874.45 710.15 803.99 710.15 803.99 490.5 763.77 436.63 851.84 436.63 927.56 540.75 964.24 491.31 998.41 445.28 1006.2 451.06 1006.9 451.06 1014.5 445.48 1047.1 489.73 1047.1 710.15 976.61 710.15 976.61 590.04 926.86 654.7 874.45 585.07"/>
	<polygon class="st1" points="1193.4 526.57 1193.6 526.57 1193.6 639.52 1224 639.52 1224 616.33 1294.5 616.33 1294.5 657.2 1253.3 710.15 1123.1 710.15 1123.1 490.5 1082.9 436.63 1193.4 436.63"/>
	<path class="st1" d="m1370.6 710.15v-219.65l-40.22-53.86h172.67l38.92 53.11v167.45l-41.23 52.95zm100.91-70.63v-132.25h-30.46v132.25z"/>
	<linearGradient id="SVGID_1_" x1="910.39" x2="910.39" y1="700.15" y2="446.63" gradientUnits="userSpaceOnUse">
		<stop stop-color="#D1D3D4" offset=".1828"/>
		<stop stop-color="#fff" offset=".6685"/>
	</linearGradient>
	<path class="st3" d="m1006.4 451.41 30.63 41.6v207.13h-50.46v-139.49l-59.66 77.54-62.49-83.03v144.99h-50.46v-212.97l-30.27-40.54h63.03l80.73 111 44.79-60.37 34.17-46.03v-0.18 0.35z" fill="url(#SVGID_1_)"/>
	<linearGradient id="SVGID_2_" x1="1193.7" x2="1193.7" y1="700.15" y2="446.63" gradientUnits="userSpaceOnUse">
		<stop stop-color="#D1D3D4" offset=".1828"/>
		<stop stop-color="#fff" offset=".6685"/>
	</linearGradient>
	<path class="st4" d="m1133.1 700.15v-212.97l-30.27-40.54h80.55v89.94h0.18v112.95h50.46v-23.19h50.46v27.44l-36.12 46.38h-115.26z" fill="url(#SVGID_2_)"/>
	<linearGradient id="SVGID_3_" x1="1441.1" x2="1441.1" y1="700.15" y2="446.63" gradientUnits="userSpaceOnUse">
		<stop stop-color="#D1D3D4" offset=".1828"/>
		<stop stop-color="#fff" offset=".6685"/>
	</linearGradient>
	<path class="st5" d="m1380.6 700.15v-212.97l-30.27-40.54h147.65l33.99 46.38v160.75l-36.12 46.38zm100.91-202.88h-50.46v152.25h50.46z" fill="url(#SVGID_3_)"/>
</g>
</svg>
