<?xml version="1.0" encoding="UTF-8"?>
<svg width="2093" height="2367" version="1.1" viewBox="-58.35 -186.71 2000.1 1993.2" xmlns="http://www.w3.org/2000/svg">
 <g transform="translate(-52.644 -322.06)" fill="#25f4ee">
  <path d="m779.38 890.55v-88.12a650.81 650.81 0 0 0-92.45-7.94c-299.8-0.64-565.22 193.64-655.25 479.6s16.24 597.25 262.32 768.47a684.7 684.7 0 0 1 485.36-1152z"/>
  <path d="m796 1888.7c167.62-0.23 305.4-132.28 312.74-299.74v-1494.4h273a512.17 512.17 0 0 1-7.94-94.62h-373.41v1492.9c-6.21 168.31-144.32 301.63-312.74 301.9a317.76 317.76 0 0 1-144.45-36.11 313.48 313.48 0 0 0 252.8 130.01zm1095.7-1287.1v-83.06a509.85 509.85 0 0 1-282.4-85.22 517.79 517.79 0 0 0 282.4 168.28z"/>
 </g>
 <path d="m1556.6 111.3a514.19 514.19 0 0 1-127.84-339.47h-99.68a517.16 517.16 0 0 0 227.52 339.47zm-922.33 734.54a313.46 313.46 0 0 0-144.46 590.81 312.75 312.75 0 0 1 253.53-496.2 329.69 329.69 0 0 1 92.44 14.49v-379.95a654.77 654.77 0 0 0-92.44-7.22h-16.62v288.9a321.13 321.13 0 0 0-92.45-10.83z" fill="#fe2c55"/>
 <path d="m1839 279.58v288.91a886.23 886.23 0 0 1-517.86-168.29v759.1c-0.8 378.78-308.09 685.43-686.87 685.43a679.65 679.65 0 0 1-392.93-124.23 685.43 685.43 0 0 0 1187.4-466.56v-756.95a887.71 887.71 0 0 0 518.58 166.12v-372a529.59 529.59 0 0 1-108.34-11.53z" fill="#fe2c55"/>
 <path d="m1321.2 1159.3v-759.1a886.11 886.11 0 0 0 518.58 166.12v-288.9a517.87 517.87 0 0 1-283.12-166.12 517.16 517.16 0 0 1-227.52-339.47h-273v1495.1a313.46 313.46 0 0 1-567 171.17 313.46 313.46 0 0 1 144.46-590.83 321.35 321.35 0 0 1 92.45 14.45v-288.91a684.71 684.71 0 0 0-485.36 1155.6 679.65 679.65 0 0 0 393.64 116.29c378.78 0 686.07-306.65 686.87-685.43z"/>
</svg>
