<?xml version="1.0" encoding="UTF-8" standalone="no"?>
<svg
   xmlns:dc="http://purl.org/dc/elements/1.1/"
   xmlns:cc="http://creativecommons.org/ns#"
   xmlns:rdf="http://www.w3.org/1999/02/22-rdf-syntax-ns#"
   xmlns:svg="http://www.w3.org/2000/svg"
   xmlns="http://www.w3.org/2000/svg"
   xmlns:sodipodi="http://sodipodi.sourceforge.net/DTD/sodipodi-0.dtd"
   xmlns:inkscape="http://www.inkscape.org/namespaces/inkscape"
   height="2367"
   viewBox="-58.35 -186.70564 2000.0764 1993.1585"
   width="2093"
   version="1.1"
   id="svg865"
   sodipodi:docname="tiktok-logo.svg"
   inkscape:version="1.0.2-2 (e86c870879, 2021-01-15)">
  <metadata
     id="metadata871">
    <rdf:RDF>
      <cc:Work
         rdf:about="">
        <dc:format>image/svg+xml</dc:format>
        <dc:type
           rdf:resource="http://purl.org/dc/dcmitype/StillImage" />
        <dc:title></dc:title>
      </cc:Work>
    </rdf:RDF>
  </metadata>
  <defs
     id="defs869" />
  <sodipodi:namedview
     pagecolor="#ffffff"
     bordercolor="#666666"
     borderopacity="1"
     objecttolerance="10"
     gridtolerance="10"
     guidetolerance="10"
     inkscape:pageopacity="0"
     inkscape:pageshadow="2"
     inkscape:window-width="1920"
     inkscape:window-height="1017"
     id="namedview867"
     showgrid="false"
     units="px"
     inkscape:zoom="0.30858678"
     inkscape:cx="1333.3417"
     inkscape:cy="1248.2749"
     inkscape:window-x="-8"
     inkscape:window-y="-8"
     inkscape:window-maximized="1"
     inkscape:current-layer="svg865" />
  <g
     fill="#25f4ee"
     id="g857"
     transform="translate(-52.644009,-322.05747)">
    <path
       d="m 779.38,890.55 v -88.12 a 650.81,650.81 0 0 0 -92.45,-7.94 c -299.8,-0.64 -565.22,193.64 -655.25,479.6 -90.03,285.96 16.24,597.25 262.32,768.47 a 684.7,684.7 0 0 1 485.36,-1152 z"
       id="path853" />
    <path
       d="m 796,1888.72 c 167.62,-0.23 305.4,-132.28 312.74,-299.74 V 94.62 h 273 A 512.17,512.17 0 0 1 1373.8,0 h -373.41 v 1492.92 c -6.21,168.31 -144.32,301.63 -312.74,301.9 A 317.76,317.76 0 0 1 543.2,1758.71 313.48,313.48 0 0 0 796,1888.72 Z M 1891.66,601.64 v -83.06 a 509.85,509.85 0 0 1 -282.4,-85.22 517.79,517.79 0 0 0 282.4,168.28 z"
       id="path855" />
  </g>
  <path
     d="m 1556.616,111.30253 a 514.19,514.19 0 0 1 -127.84,-339.47 h -99.68 a 517.16,517.16 0 0 0 227.52,339.47 z m -922.33001,734.54 a 313.46,313.46 0 0 0 -144.46,590.81007 312.75,312.75 0 0 1 253.53,-496.20007 329.69,329.69 0 0 1 92.44,14.49 v -379.95 a 654.77,654.77 0 0 0 -92.44,-7.22 h -16.62 v 288.9 a 321.13,321.13 0 0 0 -92.45,-10.83 z"
     fill="#fe2c55"
     id="path859" />
  <path
     d="m 1839.016,279.58253 v 288.91 a 886.23,886.23 0 0 1 -517.86,-168.29 v 759.10007 c -0.8,378.78 -308.09,685.43 -686.87001,685.43 a 679.65,679.65 0 0 1 -392.93,-124.23 685.43,685.43 0 0 0 1187.42001,-466.56 V 496.99253 a 887.71,887.71 0 0 0 518.58,166.12 v -372 a 529.59,529.59 0 0 1 -108.34,-11.53 z"
     fill="#fe2c55"
     id="path861" />
  <path
     d="M 1321.156,1159.3026 V 400.20253 a 886.11,886.11 0 0 0 518.58,166.12 v -288.9 a 517.87,517.87 0 0 1 -283.12,-166.12 517.16,517.16 0 0 1 -227.52,-339.47 h -273 V 1266.9426 a 313.46,313.46 0 0 1 -567.00001,171.17 313.46,313.46 0 0 1 144.46,-590.83007 321.35,321.35 0 0 1 92.45,14.45 v -288.91 a 684.71,684.71 0 0 0 -485.36,1155.62007 679.65,679.65 0 0 0 393.64,116.29 c 378.78001,0 686.07001,-306.65 686.87001,-685.43 z"
     id="path863" />
</svg>
